# Blender 3.6.2
# www.blender.org
o Cone
v 0.000000 0.656484 -0.913594
v 0.000000 -0.656484 0.913594
v 0.850651 -0.155148 -0.257738
v 0.525731 -0.656936 -0.325804
v 0.000000 -0.657043 -0.618386
v 0.525731 0.656936 0.325804
v 0.850651 0.155148 0.257738
v -0.525731 0.656936 0.325804
v 0.000000 0.657043 0.618386
v -0.850651 0.155148 0.257738
v -0.850651 -0.155148 -0.257738
v -0.525731 -0.656936 -0.325804
vn 0.4772 -0.1927 -0.8574
vn 0.7721 0.5444 -0.3277
vn -0.0000 1.0000 -0.0004
vn -0.7721 0.5444 -0.3277
vn -0.4772 -0.1927 -0.8574
vn 0.4772 0.1927 0.8574
vn 0.7721 -0.5444 0.3277
vn -0.0000 -1.0000 0.0004
vn -0.7721 -0.5444 0.3277
vn -0.4772 0.1927 0.8574
vt 0.250000 0.250000
vt 0.352078 0.283167
vt 0.313088 0.336833
vt 0.250000 0.357331
vt 0.313088 0.163167
vt 0.352078 0.216833
vt 0.186912 0.163167
vt 0.250000 0.142669
vt 0.147922 0.283167
vt 0.147922 0.216833
vt 0.186912 0.336833
vt 0.313088 0.163167
vt 0.352078 0.216833
vt 0.186912 0.163167
vt 0.147922 0.283167
s 0
f 1/1/1 3/2/1 4/3/1 5/4/1
f 6/5/2 7/6/2 3/2/2 1/1/2
f 6/5/3 1/1/3 8/7/3 9/8/3
f 8/7/4 1/1/4 11/9/4 10/10/4
f 5/4/5 12/11/5 11/9/5 1/1/5
f 9/4/6 2/1/6 7/2/6 6/3/6
f 7/2/7 2/1/7 4/12/7 3/13/7
f 4/12/8 2/1/8 12/14/8 5/8/8
f 10/15/9 11/10/9 12/14/9 2/1/9
f 2/1/10 9/4/10 8/11/10 10/15/10
